<svg xmlns="http://www.w3.org/2000/svg" xmlns:xlink="http://www.w3.org/1999/xlink" xmlns:serif="http://www.serif.com/" viewBox="0 0 101 126.25" version="1.1" xml:space="preserve" style="" x="0px" y="0px" fill-rule="evenodd" clip-rule="evenodd" stroke-linejoin="round" stroke-miterlimit="2"><rect serif:id="Page 21" x="0.5" y="0.5" width="100" height="100" style="" fill="none"/><circle cx="7.545" cy="50.5" r="2.045"/><circle cx="7.545" cy="25.955" r="2.045"/><circle cx="7.545" cy="75.045" r="2.045"/><circle cx="56.636" cy="50.5" r="2.045"/><circle cx="56.636" cy="25.955" r="2.045"/><circle cx="56.636" cy="75.045" r="2.045"/><circle cx="32.091" cy="50.5" r="2.045"/><circle cx="32.091" cy="25.955" r="2.045"/><circle cx="32.091" cy="75.045" r="2.045"/><circle cx="81.182" cy="50.5" r="2.045"/><circle cx="81.182" cy="25.955" r="2.045"/><circle cx="81.182" cy="75.045" r="2.045"/><circle cx="7.545" cy="13.682" r="2.045"/><circle cx="7.545" cy="62.773" r="2.045"/><circle cx="7.545" cy="38.227" r="2.045"/><circle cx="7.545" cy="87.318" r="2.045"/><circle cx="56.636" cy="13.682" r="2.045"/><circle cx="56.636" cy="62.773" r="2.045"/><circle cx="56.636" cy="38.227" r="2.045"/><circle cx="56.636" cy="87.318" r="2.045"/><circle cx="32.091" cy="13.682" r="2.045"/><circle cx="32.091" cy="62.773" r="2.045"/><circle cx="32.091" cy="38.227" r="2.045"/><circle cx="32.091" cy="87.318" r="2.045"/><circle cx="81.182" cy="13.682" r="2.045"/><circle cx="81.182" cy="62.773" r="2.045"/><circle cx="81.182" cy="38.227" r="2.045"/><circle cx="81.182" cy="87.318" r="2.045"/><circle cx="7.545" cy="7.545" r="2.045"/><circle cx="7.545" cy="56.636" r="2.045"/><circle cx="7.545" cy="32.091" r="2.045"/><circle cx="7.545" cy="81.182" r="2.045"/><circle cx="56.636" cy="7.545" r="2.045"/><circle cx="56.636" cy="56.636" r="2.045"/><circle cx="56.636" cy="32.091" r="2.045"/><circle cx="56.636" cy="81.182" r="2.045"/><circle cx="32.091" cy="7.545" r="2.045"/><circle cx="32.091" cy="56.636" r="2.045"/><circle cx="32.091" cy="32.091" r="2.045"/><circle cx="32.091" cy="81.182" r="2.045"/><circle cx="81.182" cy="7.545" r="2.045"/><circle cx="81.182" cy="56.636" r="2.045"/><circle cx="81.182" cy="32.091" r="2.045"/><circle cx="81.182" cy="81.182" r="2.045"/><circle cx="7.545" cy="19.818" r="2.045"/><circle cx="7.545" cy="68.909" r="2.045"/><circle cx="7.545" cy="44.364" r="2.045"/><circle cx="7.545" cy="93.455" r="2.045"/><circle cx="56.636" cy="19.818" r="2.045"/><circle cx="56.636" cy="68.909" r="2.045"/><circle cx="56.636" cy="44.364" r="2.045"/><circle cx="56.636" cy="93.455" r="2.045"/><circle cx="32.091" cy="19.818" r="2.045"/><circle cx="32.091" cy="68.909" r="2.045"/><circle cx="32.091" cy="44.364" r="2.045"/><circle cx="32.091" cy="93.455" r="2.045"/><circle cx="81.182" cy="19.818" r="2.045"/><circle cx="81.182" cy="68.909" r="2.045"/><circle cx="81.182" cy="44.364" r="2.045"/><circle cx="81.182" cy="93.455" r="2.045"/><circle cx="13.682" cy="50.5" r="2.045"/><circle cx="13.682" cy="25.955" r="2.045"/><circle cx="13.682" cy="75.045" r="2.045"/><circle cx="62.773" cy="50.5" r="2.045"/><circle cx="62.773" cy="25.955" r="2.045"/><circle cx="62.773" cy="75.045" r="2.045"/><circle cx="38.227" cy="50.5" r="2.045"/><circle cx="38.227" cy="25.955" r="2.045"/><circle cx="38.227" cy="75.045" r="2.045"/><circle cx="87.318" cy="50.5" r="2.045"/><circle cx="87.318" cy="25.955" r="2.045"/><circle cx="87.318" cy="75.045" r="2.045"/><circle cx="13.682" cy="13.682" r="2.045"/><circle cx="13.682" cy="62.773" r="2.045"/><circle cx="13.682" cy="38.227" r="2.045"/><circle cx="13.682" cy="87.318" r="2.045"/><circle cx="62.773" cy="13.682" r="2.045"/><circle cx="62.773" cy="62.773" r="2.045"/><circle cx="62.773" cy="38.227" r="2.045"/><circle cx="62.773" cy="87.318" r="2.045"/><circle cx="38.227" cy="13.682" r="2.045"/><circle cx="38.227" cy="62.773" r="2.045"/><circle cx="38.227" cy="38.227" r="2.045"/><circle cx="38.227" cy="87.318" r="2.045"/><circle cx="87.318" cy="13.682" r="2.045"/><circle cx="87.318" cy="62.773" r="2.045"/><circle cx="87.318" cy="38.227" r="2.045"/><circle cx="87.318" cy="87.318" r="2.045"/><circle cx="13.682" cy="7.545" r="2.045"/><circle cx="13.682" cy="56.636" r="2.045"/><circle cx="13.682" cy="32.091" r="2.045"/><circle cx="13.682" cy="81.182" r="2.045"/><circle cx="62.773" cy="7.545" r="2.045"/><circle cx="62.773" cy="56.636" r="2.045"/><circle cx="62.773" cy="32.091" r="2.045"/><circle cx="62.773" cy="81.182" r="2.045"/><circle cx="38.227" cy="7.545" r="2.045"/><circle cx="38.227" cy="56.636" r="2.045"/><circle cx="38.227" cy="32.091" r="2.045"/><circle cx="38.227" cy="81.182" r="2.045"/><circle cx="87.318" cy="7.545" r="2.045"/><circle cx="87.318" cy="56.636" r="2.045"/><circle cx="87.318" cy="32.091" r="2.045"/><circle cx="87.318" cy="81.182" r="2.045"/><circle cx="13.682" cy="19.818" r="2.045"/><circle cx="13.682" cy="68.909" r="2.045"/><circle cx="13.682" cy="44.364" r="2.045"/><circle cx="13.682" cy="93.455" r="2.045"/><circle cx="62.773" cy="19.818" r="2.045"/><circle cx="62.773" cy="68.909" r="2.045"/><circle cx="62.773" cy="44.364" r="2.045"/><circle cx="62.773" cy="93.455" r="2.045"/><circle cx="38.227" cy="19.818" r="2.045"/><circle cx="38.227" cy="68.909" r="2.045"/><circle cx="38.227" cy="44.364" r="2.045"/><circle cx="38.227" cy="93.455" r="2.045"/><circle cx="87.318" cy="19.818" r="2.045"/><circle cx="87.318" cy="68.909" r="2.045"/><circle cx="87.318" cy="44.364" r="2.045"/><circle cx="87.318" cy="93.455" r="2.045"/><circle cx="19.818" cy="50.5" r="2.045"/><circle cx="19.818" cy="25.955" r="2.045"/><circle cx="19.818" cy="75.045" r="2.045"/><circle cx="68.909" cy="50.5" r="2.045"/><circle cx="68.909" cy="25.955" r="2.045"/><circle cx="68.909" cy="75.045" r="2.045"/><circle cx="44.364" cy="50.5" r="2.045"/><circle cx="44.364" cy="25.955" r="2.045"/><circle cx="44.364" cy="75.045" r="2.045"/><circle cx="93.455" cy="50.5" r="2.045"/><circle cx="93.455" cy="25.955" r="2.045"/><circle cx="93.455" cy="75.045" r="2.045"/><circle cx="25.955" cy="50.5" r="2.045"/><circle cx="25.955" cy="25.955" r="2.045"/><circle cx="25.955" cy="75.045" r="2.045"/><circle cx="75.045" cy="50.5" r="2.045"/><circle cx="75.045" cy="25.955" r="2.045"/><circle cx="75.045" cy="75.045" r="2.045"/><circle cx="50.5" cy="50.5" r="2.045"/><circle cx="50.5" cy="25.955" r="2.045"/><circle cx="50.5" cy="75.045" r="2.045"/><circle cx="19.818" cy="13.682" r="2.045"/><circle cx="19.818" cy="62.773" r="2.045"/><circle cx="19.818" cy="38.227" r="2.045"/><circle cx="19.818" cy="87.318" r="2.045"/><circle cx="68.909" cy="13.682" r="2.045"/><circle cx="68.909" cy="62.773" r="2.045"/><circle cx="68.909" cy="38.227" r="2.045"/><circle cx="68.909" cy="87.318" r="2.045"/><circle cx="44.364" cy="13.682" r="2.045"/><circle cx="44.364" cy="62.773" r="2.045"/><circle cx="44.364" cy="38.227" r="2.045"/><circle cx="44.364" cy="87.318" r="2.045"/><circle cx="93.455" cy="13.682" r="2.045"/><circle cx="93.455" cy="62.773" r="2.045"/><circle cx="93.455" cy="38.227" r="2.045"/><circle cx="93.455" cy="87.318" r="2.045"/><circle cx="25.955" cy="13.682" r="2.045"/><circle cx="25.955" cy="62.773" r="2.045"/><circle cx="25.955" cy="38.227" r="2.045"/><circle cx="25.955" cy="87.318" r="2.045"/><circle cx="75.045" cy="13.682" r="2.045"/><circle cx="75.045" cy="62.773" r="2.045"/><circle cx="75.045" cy="38.227" r="2.045"/><circle cx="75.045" cy="87.318" r="2.045"/><circle cx="50.5" cy="13.682" r="2.045"/><circle cx="50.5" cy="62.773" r="2.045"/><circle cx="50.5" cy="38.227" r="2.045"/><circle cx="50.5" cy="87.318" r="2.045"/><circle cx="19.818" cy="7.545" r="2.045"/><circle cx="19.818" cy="56.636" r="2.045"/><circle cx="19.818" cy="32.091" r="2.045"/><circle cx="19.818" cy="81.182" r="2.045"/><circle cx="68.909" cy="7.545" r="2.045"/><circle cx="68.909" cy="56.636" r="2.045"/><circle cx="68.909" cy="32.091" r="2.045"/><circle cx="68.909" cy="81.182" r="2.045"/><circle cx="44.364" cy="7.545" r="2.045"/><circle cx="44.364" cy="56.636" r="2.045"/><circle cx="44.364" cy="32.091" r="2.045"/><circle cx="44.364" cy="81.182" r="2.045"/><circle cx="93.455" cy="7.545" r="2.045"/><circle cx="93.455" cy="56.636" r="2.045"/><circle cx="93.455" cy="32.091" r="2.045"/><circle cx="93.455" cy="81.182" r="2.045"/><circle cx="25.955" cy="7.545" r="2.045"/><circle cx="25.955" cy="56.636" r="2.045"/><circle cx="25.955" cy="32.091" r="2.045"/><circle cx="25.955" cy="81.182" r="2.045"/><circle cx="75.045" cy="7.545" r="2.045"/><circle cx="75.045" cy="56.636" r="2.045"/><circle cx="75.045" cy="32.091" r="2.045"/><circle cx="75.045" cy="81.182" r="2.045"/><circle cx="50.5" cy="7.545" r="2.045"/><circle cx="50.5" cy="56.636" r="2.045"/><circle cx="50.5" cy="32.091" r="2.045"/><circle cx="50.5" cy="81.182" r="2.045"/><circle cx="19.818" cy="19.818" r="2.045"/><circle cx="19.818" cy="68.909" r="2.045"/><circle cx="19.818" cy="44.364" r="2.045"/><circle cx="19.818" cy="93.455" r="2.045"/><circle cx="68.909" cy="19.818" r="2.045"/><circle cx="68.909" cy="68.909" r="2.045"/><circle cx="68.909" cy="44.364" r="2.045"/><circle cx="68.909" cy="93.455" r="2.045"/><circle cx="44.364" cy="19.818" r="2.045"/><circle cx="44.364" cy="68.909" r="2.045"/><circle cx="44.364" cy="44.364" r="2.045"/><circle cx="44.364" cy="93.455" r="2.045"/><circle cx="93.455" cy="19.818" r="2.045"/><circle cx="93.455" cy="68.909" r="2.045"/><circle cx="93.455" cy="44.364" r="2.045"/><circle cx="93.455" cy="93.455" r="2.045"/><circle cx="25.955" cy="19.818" r="2.045"/><circle cx="25.955" cy="68.909" r="2.045"/><circle cx="25.955" cy="44.364" r="2.045"/><circle cx="25.955" cy="93.455" r="2.045"/><circle cx="75.045" cy="19.818" r="2.045"/><circle cx="75.045" cy="68.909" r="2.045"/><circle cx="75.045" cy="44.364" r="2.045"/><circle cx="75.045" cy="93.455" r="2.045"/><circle cx="50.5" cy="19.818" r="2.045"/><circle cx="50.5" cy="68.909" r="2.045"/><circle cx="50.5" cy="44.364" r="2.045"/><circle cx="50.5" cy="93.455" r="2.045"/></svg>